<?xml version="1.0" encoding="utf-8"?>
<!-- Generator: Adobe Illustrator 22.0.1, SVG Export Plug-In . SVG Version: 6.00 Build 0)  -->
<svg version="1.1" id="Layer_1" xmlns="http://www.w3.org/2000/svg" xmlns:xlink="http://www.w3.org/1999/xlink" x="0px" y="0px"
	 viewBox="0 0 378 103.5" style="enable-background:new 0 0 378 103.5;" xml:space="preserve">
<g>
	<path d="M144.8,74.6c-3.1,2-4.1,0.2-5.6-1.6c-2-2.4,0.4-3.8,1.3-5.4c1.7-3.3,5.3-6.2,3-11.3c-5.8,3.5-5.5,12.2-13.9,12.8
		c2.1-5,4-9.5,5.8-14.1c1.5-3.6,3.1-7.2,4.2-10.9c0.7-2.3,0.5-5.2-2.2-6c-2.7-0.9-3.3,2.1-4,3.9c-2.2,5-3.9,10.3-6.3,15.2
		c-2.9,6.1-4.9,13-11.7,17.4c-3-14.4-10-7.1-16.5-2.5c0.6-2.3,1.4-3.1,1.5-4c0.3-2.6,3.3-5.6-0.6-7.6c-3.2-1.7-5.4,0.9-7.4,2.9
		c-2.5,2.6-4.8,5.5-7.4,8.1c-6.5,6.6-6.7,6.6-9.2-2c-1.4-4.7-3.3-5.7-7-2.3c-1.3,1.3-2.6,2.6-3.9,3.9c-3.4,3.4-6.1,4.3-7.4-1.8
		c-1-4.5-3.5-3.7-6.2-1.4c-1.5,3.3-2.1,7.2-5.7,9.7c-1.8-5.3,0.7-8.5,4.2-11.4C55.3,58,62,50.5,64.6,40.6c0.6-2.4,1.3-4.5-1.4-6.1
		c-2.5-1.5-3.9,0.2-5.4,1.6c-4.1,3.7-7.3,8.1-10.4,12.7c-5.1,7.5-5.8,16.6-9.8,24.5c-1.3,2.7-0.4,10,3.8,12.1c4,2,5.7-3.3,8-5.8
		c1-1.1,1.5-4.1,3.4-2.1c4.8,4.8,8.6,2,12.2-1.3c2.4-2.2,3.5-2,5.1,0.9c3.6,6.4,7.1,6.7,12.6,1.8c2.4-2.1,3.2-6.2,7.5-6.1
		c2,4-4.9,9.6,0.6,11.7c5.1,2,7.2-4.8,10.5-7.8c4-3.6,6.7-3.7,8.2,2c1.8,3,4.1,3.2,7,1.5c1.3-0.7,2-3.4,4.2-1.4
		c0.9,2.6-1.3,6.5,2.3,7.6c3.3,1.1,5-2.3,6.7-4.5c1.9-2.7,3.4-4.2,6.7-1.4c4.7,3.9,7.8,0,10.3-3.4C148.2,75.6,147.2,73,144.8,74.6z
		 M56.7,48.1c-1.6,4.7-3.4,7.5-6.2,9.6C51.1,54.2,51.6,50.7,56.7,48.1z"/>
	<path d="M331.8,63.5c-2,4.7-4.3,9.4-6.8,14.9c-2.6-4.4-2.7-7.9-1.7-11.4c0.7-2.5,1.1-5.4-1.5-6.1c-2.4-0.7-3.8,2-4.8,4.3
		c-1.2,2.6-2.7,5-4.8,7.1c-3.8,3.8-6.7,6.7-7.9-1.8c-0.7-5.1-2.8-8.2-8-2.5c-2.5,2.7-5.4,5.9-9.5,6.2c-0.9-1.8-0.1-2.6,0.3-3.5
		c2-5.6-1.2-9.5-5.7-11.3c-4.4-1.8-6,2-7.4,5.8c-0.8,2.3-3.1,4.1-4.9,6c-3,3.1-5.8,4.1-7.2-1.4c-0.8-3.1-2.3-4.6-5.6-2.9
		c-0.6,1.9-2.7,2.8-3.2,5.1c-0.5,2-0.7,6.3-3.8,4.8c-2.3-1.1,0.4-4.6,1.4-6.6c1.3-2.6,3.7-4.7,5.5-7c0,0,0,0,0,0
		c5-7.3,10.3-14.4,12.7-23.1c0.5-2,1.2-4-1.2-5.5c-2.4-1.5-3.9-0.1-5.5,1.2c-1.4,1.2-2.6,2.6-3.9,3.8c-9.8,9.2-11.6,22.4-16.6,33.9
		c-1.3,3-0.1,9.7,3.3,11.8c4.6,2.8,6.2-2.9,8.5-5.7c0.9-1.1,1.6-3.8,3.2-2.3c8.3,7.4,11.8-1.5,16.9-4.7c2.2-1.4,3.1-6.3,6.4-4.1
		c3.1,2,0.5,5.7-0.2,8.7c-0.3,1.2-1.2,2.3-1.8,3.4c-0.1,3.6,1.5,5,4.9,3.4c2.4-1.1,4.8-2.3,6.7-4.1c4.1-3.9,7.5-8.2,11,0.8
		c1.1,2.9,5.1,2.1,7.6,0.3c2.9-2.1,5.5-4.5,8.4-6.8c0.4,0.7,0.7,1.1,0.8,1.5c0.8,3.6-1.5,9.3,3.6,10c4.9,0.6,6.7-4.5,8.5-8.7
		c2.6-6,6.4-11.6,6.9-18.4C332.7,58.1,332.8,61.2,331.8,63.5z M261.2,47.3c-2,5.1-4,9.4-8.4,12.3C255,55.4,255.3,49.9,261.2,47.3z"
		/>
	<path d="M191.5,75.8c-3.1-14.3-13.5-25.5-7.4-41.5c-3.8,1.6-5.4,4-8.4,3.5c-3.2-0.5-3.6,2.2-3.7,4.6c-0.5,12.8-3.9,25.1-5.5,37.7
		c-0.3,2.2-3.3,5.7,0.8,6.4c2.9,0.5,3.2-3.5,3.8-6c1.9-6.9,3.8-13.8,6-21.5c5.3,6.9,6,14.8,10.3,21c1.4,2,2,5.1,5.7,4.1
		c2.9-0.8,4.3-2.6,5-5.4c3.8-15,4.4-30.3,4.2-45.9C192.1,45.1,199.3,61.4,191.5,75.8z"/>
	<path d="M241.4,40.5c1.8,0.5,3.2,0.3,3.6-1.7c0.3-1.7,0.6-3.5-1.5-4.8c-7.5-4.7-22.6,0.3-24.9,8.3c2.1,0.7,4.1,0.1,6-0.5
		c6.4-2.1,7.5,0.4,5,5.8c0,0,0,0,0,0c-0.5,9.9-1.2,19.8-1.5,29.7c-0.1,2.6-0.9,7.1,2,7.4c4.5,0.4,2.2-4.1,2.7-6.6c0.2-1,0.6-2,0.7-3
		c0.4-11.6,5.3-22.7,4.1-34.9C239,40.3,240.3,40.2,241.4,40.5z"/>
	<path d="M40.7,38.3c0.4-3.4-1.2-4.5-4.4-4.9c-5-0.5-9.9-0.2-14.8,0.2c-4.4,0.4-2.9,3.5-3.1,5.8c-0.1,1.5-0.2,3.3,2.4,2.5
		c7.5-2.4,5.1,2.5,4.7,6.2c-1,10.3-2.5,20.7-1.7,31.1c0.1,1.8-1,5.6,2.3,5.6c3.2,0.1,2.7-2.9,2.4-5.3c-0.2-1.5,0.6-3.1,0.6-4.6
		c0.1-11.6,5.5-22.5,3.9-34.5c0.7-0.1,1.5-0.3,2.2-0.3C37.4,40.1,40.2,42.5,40.7,38.3z"/>
	<path d="M353.7,74.2c-2.9-1-6.2,4.1-8.4,0.3c-2.2-3.9,3.5-4.9,4.4-8c0.1-0.5,0.6-0.8,0.9-1.3c1.6-3,3.8-6.6,0.4-9.1
		c-3.8-2.9-6.6,0.2-8.8,3.4c-0.9,1.3-1.9,2.4-2.9,3.6v0c-1.2,2.8-0.6,6.2-3,8.6c-1.3,1.2-1.5,2.4-0.3,4c6.4,8.8,12.2,8.9,19.4,0.1
		C354.8,75.2,354.4,74.4,353.7,74.2z"/>
	<path d="M74,55.4c3.8-1,5.4-4,5.9-7.9c0.2-1.7-0.9-2.6-2.3-2.2c-3.5,1.1-6.7,2.9-7.2,7C70,54.7,71.5,55.6,74,55.4z"/>
	<path d="M301.1,55.5c4.6,0.1,5.9-3.5,7.1-7c0.6-1.9-0.3-2.9-2.5-3.3c-3.4,1-6,3.4-7,7.1C298.1,54,299.3,55.4,301.1,55.5z"/>
	<path d="M358.3,77.3c-0.1,3.2,0,6.8,4,7c3,0.1,2.6-3.2,2.8-5.4C363.2,77,361.5,73.8,358.3,77.3z"/>
</g>
<image style="overflow:visible;" width="218" height="112" xlink:href="A1939C0D.jpg"  transform="matrix(0.9999 0 0 0.9999 190 123)">
</image>
</svg>
